<svg xmlns="http://www.w3.org/2000/svg" viewBox="0 0 173.23 137.61"><defs><style>.cls-1{fill:#a3dbf6;}.cls-2{fill:#5058a6;}.cls-3{fill:#4b5088;}.cls-4{fill:#f1585f;}</style></defs><title>logo</title><g id="Layer_2" data-name="Layer 2"><rect class="cls-1" x="110.47" width="62.76" height="137.61" rx="31.38"/><path class="cls-2" d="M315.23,402.16l-.5-53-52.16-46.5a31,31,0,0,0-43.7,2.5h0a31,31,0,0,0,2.5,43.7l56.51,50.39A31,31,0,0,0,315.23,402.16Z" transform="translate(-211.02 -293.92)"/><path class="cls-3" d="M273.75,404.24l-62.49-54.33v50.24a31.38,31.38,0,0,0,31.38,31.38h0A31.37,31.37,0,0,0,273.75,404.24Z" transform="translate(-211.02 -293.92)"/><path class="cls-4" d="M276,397.94h0a31.39,31.39,0,0,0,39.38,5.1V320.79c0-1.05,0-2.08-.15-3.1l-38,35.89A31.39,31.39,0,0,0,276,397.94Z" transform="translate(-211.02 -293.92)"/></g></svg>